<?xml version="1.0" standalone="no"?>
<!DOCTYPE svg PUBLIC "-//W3C//DTD SVG 20010904//EN"
 "http://www.w3.org/TR/2001/REC-SVG-20010904/DTD/svg10.dtd">
<svg version="1.0" xmlns="http://www.w3.org/2000/svg"
 width="150.000000pt" height="143.000000pt" viewBox="0 0 150.000000 143.000000"
 preserveAspectRatio="xMidYMid meet">

<g transform="translate(0.000000,143.000000) scale(0.100000,-0.100000)"
fill="#000000" stroke="none">
<path d="M645 1403 c-115 -15 -232 -59 -325 -123 -131 -89 -215 -200 -268
-349 -23 -67 -27 -91 -26 -206 0 -116 3 -139 28 -212 78 -231 281 -411 536
-475 98 -24 271 -26 360 -3 84 21 233 94 290 141 116 97 207 245 236 384 21
98 13 250 -17 340 -108 327 -466 548 -814 503z m284 -208 c2 -3 -33 -5 -79 -5
-74 0 -81 -2 -69 -16 10 -12 27 -15 71 -12 43 2 57 0 54 -9 -4 -9 18 -13 77
-16 l82 -3 -89 -2 c-67 -1 -94 -6 -108 -19 -10 -9 -18 -20 -18 -25 0 -4 39 -8
88 -9 48 -1 114 -5 147 -9 47 -6 29 -7 -87 -9 l-148 -1 0 -25 c0 -20 5 -25 26
-25 14 0 37 9 51 20 18 14 41 20 73 20 32 0 55 -6 73 -20 17 -14 42 -20 79
-22 l53 -1 -47 -6 c-47 -6 -47 -6 -35 -31 11 -23 18 -25 65 -22 33 3 52 0 52
-7 0 -7 -22 -11 -55 -11 -49 0 -57 -3 -64 -22 -8 -22 -6 -23 73 -29 l81 -5
-86 -2 c-54 -1 -98 -8 -115 -17 -36 -19 -91 -19 -124 0 -14 8 -42 14 -63 15
-34 0 -38 -2 -35 -22 3 -23 6 -23 157 -26 147 -2 155 -2 178 19 l23 22 0 -21
c0 -19 6 -22 43 -24 l42 -1 -43 -4 c-40 -4 -43 -6 -40 -31 3 -23 7 -27 31 -24
15 2 35 -2 45 -7 15 -9 14 -10 -8 -11 -18 0 -21 -3 -11 -9 7 -5 11 -13 7 -19
-3 -6 2 -13 11 -15 10 -3 -1 -5 -24 -6 -39 -1 -43 -3 -43 -26 0 -22 4 -25 36
-25 23 0 33 -4 28 -11 -3 -6 -19 -9 -35 -7 -26 4 -29 2 -29 -23 0 -24 5 -28
33 -32 17 -2 -6 -5 -52 -5 -71 -2 -82 -4 -77 -18 3 -9 6 -20 6 -25 0 -5 28 -9
62 -9 34 0 58 -3 54 -7 -4 -4 -27 -6 -51 -4 -40 2 -46 0 -55 -24 -5 -14 -10
-28 -10 -31 0 -2 21 -5 48 -6 l47 -2 -48 -3 c-29 -3 -62 -14 -84 -29 l-36 -24
46 0 c25 0 49 -4 52 -10 4 -6 -45 -10 -141 -10 l-147 0 23 -25 c21 -23 31 -25
114 -27 l91 -1 -100 -7 c-55 -4 -111 -6 -125 -3 -30 5 -77 -27 -66 -45 4 -7
35 -12 78 -12 39 0 69 -2 66 -5 -2 -3 -60 -5 -129 -4 -68 0 -145 0 -171 0 -27
-1 -48 4 -48 9 0 6 30 10 70 10 72 0 82 6 53 32 -14 12 -47 16 -142 17 -68 0
-127 3 -129 6 -3 3 33 5 80 5 68 0 88 3 100 18 37 42 36 42 -112 41 -78 -1
-144 2 -147 5 -4 3 20 6 53 7 32 0 52 3 44 6 -8 3 -27 14 -42 24 -15 11 -46
20 -75 21 l-48 1 43 4 c40 4 43 6 40 31 -3 25 -7 27 -63 33 l-60 6 60 1 c53 2
61 5 72 27 l11 25 -84 0 c-49 0 -84 4 -84 10 0 6 14 10 30 10 25 0 30 4 30 25
0 22 -4 25 -42 27 l-43 1 43 4 c37 4 42 7 42 29 0 21 -4 24 -39 24 -22 0 -43
5 -46 10 -3 6 1 10 10 10 9 0 14 4 11 9 -3 5 2 12 12 17 14 6 12 8 -13 14 -26
7 -24 8 18 9 43 1 47 3 47 26 0 22 -4 25 -42 27 l-43 1 41 4 c32 3 43 9 47 24
6 21 6 21 34 0 27 -20 39 -21 178 -19 144 3 150 4 153 24 4 31 -26 35 -89 13
-63 -22 -95 -23 -129 -4 -16 9 -55 14 -105 15 -44 0 -87 5 -95 10 -10 7 11 10
69 10 72 0 82 2 77 16 -3 9 -6 20 -6 25 0 5 -28 10 -62 11 l-63 1 59 6 c49 5
60 10 67 29 8 21 6 22 -37 22 -29 0 -43 4 -39 11 4 6 26 9 50 8 24 -2 50 2 58
9 8 7 31 18 52 25 l38 13 -73 2 c-134 4 -86 12 68 12 84 0 152 3 152 7 0 3 -7
15 -17 25 -13 15 -34 18 -112 20 l-96 2 88 3 c70 3 87 6 78 17 -8 10 1 11 47
8 45 -3 61 0 71 12 12 14 5 16 -75 16 -60 0 -84 3 -74 10 14 9 349 4 359 -5z"/>
<path d="M530 1061 c1 -11 76 -41 103 -41 22 0 27 5 27 25 0 24 -2 25 -65 24
-36 -1 -65 -4 -65 -8z"/>
<path d="M484 1008 c-4 -6 -2 -14 4 -16 16 -5 15 -85 0 -100 -9 -9 -6 -12 15
-12 27 0 36 13 17 25 -12 8 -10 84 3 92 5 3 3 9 -4 14 -19 12 -27 11 -35 -3z"/>
<path d="M982 1008 c-20 -20 -14 -35 23 -57 19 -11 35 -25 35 -30 0 -19 -21
-22 -45 -7 -24 15 -25 15 -25 -2 0 -16 7 -19 43 -18 36 1 42 4 45 24 3 16 -5
27 -27 40 -17 9 -31 25 -31 35 0 21 26 23 34 2 8 -22 25 -18 19 5 -6 23 -51
28 -71 8z"/>
<path d="M624 984 c3 -9 6 -20 6 -25 0 -5 7 -9 15 -9 9 0 15 9 15 25 0 19 -5
25 -21 25 -15 0 -19 -4 -15 -16z"/>
<path d="M850 975 c0 -18 5 -25 19 -25 12 0 20 9 23 25 4 21 1 25 -18 25 -19
0 -24 -5 -24 -25z"/>
<path d="M622 915 c-11 -23 -10 -25 13 -25 20 0 25 5 25 25 0 14 -6 25 -13 25
-8 0 -19 -11 -25 -25z"/>
<path d="M854 925 c-9 -23 3 -45 26 -45 22 0 23 3 14 38 -7 25 -32 30 -40 7z"/>
<path d="M458 803 c28 -2 76 -2 105 0 28 2 5 3 -53 3 -58 0 -81 -1 -52 -3z"/>
<path d="M923 803 c37 -2 97 -2 135 0 37 2 6 3 -68 3 -74 0 -105 -1 -67 -3z"/>
<path d="M339 604 l-24 -26 70 6 c92 9 168 9 233 1 51 -7 52 -6 52 19 l0 26
-153 0 c-152 0 -154 0 -178 -26z"/>
<path d="M860 600 c0 -31 1 -32 38 -28 20 3 47 10 59 16 29 16 93 14 123 -3
27 -15 120 -20 120 -7 0 5 -9 17 -20 27 -18 16 -43 19 -170 23 l-150 4 0 -32z"/>
<path d="M465 485 l0 -75 31 0 c18 0 42 8 54 18 19 15 22 24 15 48 -4 16 -8
40 -9 54 -1 22 -6 25 -46 28 l-45 3 0 -76z m75 39 c0 -8 -9 -14 -19 -14 -22 0
-35 15 -27 29 9 13 46 1 46 -15z m5 -64 c0 -19 -5 -25 -24 -25 -16 0 -25 6
-27 19 -4 28 5 38 29 34 16 -2 22 -10 22 -28z"/>
<path d="M622 535 c6 -14 19 -25 30 -25 13 0 18 7 18 25 0 21 -5 25 -30 25
-28 0 -29 -1 -18 -25z"/>
<path d="M860 535 c0 -18 5 -25 20 -25 11 0 20 4 20 9 0 5 3 16 6 25 5 12 0
16 -20 16 -21 0 -26 -5 -26 -25z"/>
<path d="M968 485 c3 -53 7 -65 21 -65 13 0 16 8 13 43 l-3 42 33 -50 c35 -54
35 -55 40 43 3 43 0 52 -14 52 -14 0 -16 -7 -12 -37 l5 -38 -25 30 c-14 17
-26 33 -26 38 0 4 -8 7 -17 7 -16 0 -18 -8 -15 -65z"/>
<path d="M631 478 c-5 -13 -6 -27 -2 -31 14 -14 41 5 41 29 0 31 -28 32 -39 2z"/>
<path d="M860 471 c0 -26 4 -31 24 -31 22 0 23 3 17 28 -11 40 -41 42 -41 3z"/>
<path d="M589 414 c-7 -9 -22 -20 -34 -24 -13 -6 2 -9 48 -9 65 -1 67 0 67 24
0 22 -4 25 -34 25 -19 0 -39 -7 -47 -16z"/>
<path d="M860 405 c0 -24 2 -25 68 -24 37 0 60 3 52 6 -8 3 -27 14 -42 24 -14
11 -38 19 -52 19 -21 0 -26 -5 -26 -25z"/>
</g>
</svg>
